<svg id="Layer_1" data-name="Layer 1" xmlns="http://www.w3.org/2000/svg" width="63.4" height="43.6" viewBox="0 0 63.4 43.6">
  <defs>
    <style>
      .cls-1 {
        fill: #036;
      }

      .cls-2 {
        fill: #fff;
      }

      .cls-3 {
        fill: #fdb913;
      }

      .cls-4 {
        fill: #4c81af;
      }
    </style>
  </defs>
  <title>01_gov3_bc_symbol</title>
  <rect class="cls-1" width="63.4" height="43.58"/>
  <g>
    <path class="cls-2" d="M9.2,34.8c9.7,0,23.2,5.5,33,5.5,7,0,13.8-1.9,17.7-4.6a29.6,29.6,0,1,0-58.5,0A48.4,48.4,0,0,1,9.2,34.8Z" transform="translate(1.1 0.9)"/>
    <polygon class="cls-3" points="50.8 24.8 52 25.3 54.6 23.5 50.8 24.8"/>
    <path class="cls-3" d="M6.1,21.9,3,20.8l.2-.4,3.4,1.2h0l.5-.3h.2L3.5,19.6l.2-.4,8.4,3.4h.3L4,18.4l.2-.4,8.9,4.1h.1L4.6,17.2l.2-.4,12.4,6.8.4-.7a110.7,110.7,0,0,0-9.3-7.8,110.3,110.3,0,0,0,10.5,6l.5-.7L8.8,11.2l.3-.3,8.6,7.3L9.7,10.2l.3-.3,8.9,8.6L10.6,9.3l.3-.3,7.7,8.2-7-8.8.3-.3,9,10.9.7-.5A110.1,110.1,0,0,0,15.9,7.9a110.3,110.3,0,0,0,7.4,9.5l.8-.4h0L17.7,4.4l.4-.2,5.2,10L18.9,3.9l.4-.2,5,11.3L20.1,3.4h.4l4,10.5L21.3,2.9h.4l4.2,13.4h0l.9-.2A110.2,110.2,0,0,0,25.5,4a110.4,110.4,0,0,0,3.3,11.5h.9l-1.1-14h.4L30,12.7,29.8,1.5h.4l.4,12.4.4-12.4h.4l-.2,11.2L32.4,1.5h.4l-1.1,14h.9A110.5,110.5,0,0,0,35.9,4.1a111.1,111.1,0,0,0-1.3,11.9l.8.3L39.6,2.8H40L36.8,13.8l4-10.5h.4L37,15.1,42,3.8l.4.2L38,14.3l5.2-10,.4.2L37.4,16.9h0l.8.4a110.6,110.6,0,0,0,7.4-9.4,111.1,111.1,0,0,0-5.6,10.6l.7.6L49.4,8.3l.3.3-7,8.8,7.7-8.2.3.3-8.3,9.2L51.3,10l.3.3-7.9,7.9L52.2,11l.3.3L42.1,20.5h0l.5.6a110.5,110.5,0,0,0,10.4-6,110.6,110.6,0,0,0-9.2,7.7l.5.8L56.5,17l.2.4-9.8,5.5L57,18.1l.2.4-9.5,4.6h.2l9.6-3.9.2.4-9,3.8h.2l6-2,.9-.6.3.2,2-.6.2.4-1.7.6L59,23.4l.8.4a30,30,0,0,0-58.5.7h.1l.4-.2h.2Z" transform="translate(1.1 0.9)"/>
    <path class="cls-4" d="M1.1,36.3a49.3,49.3,0,0,1,8.1-.9c9.7,0,23.2,5.5,33,5.5,7.2,0,14.2-2,18-4.8a30.2,30.2,0,0,0-.4-12.2l-4.1-2.3L51,24.9l-3.3-1.2c-1.1.5-7.8,5-7.8,5l-2.6-1.9-2.7-.5-3.7-2.7-4.2,2.9-4.9,2.7c-.2,0-5.7-4.4-5.7-4.4l-2.6-2.7-2.2,1.1h-.1l-1.7-.5-2-1.1L1.4,24.5H1.3A30.2,30.2,0,0,0,1.1,36.3Z" transform="translate(1.1 0.9)"/>
  </g>
</svg>
